<?xml version="1.0" encoding="utf-8"?>
<!-- Generator: Adobe Illustrator 17.0.0, SVG Export Plug-In . SVG Version: 6.00 Build 0)  -->
<!DOCTYPE svg PUBLIC "-//W3C//DTD SVG 1.1//EN" "http://www.w3.org/Graphics/SVG/1.1/DTD/svg11.dtd">
<svg version="1.1" id="Layer_1" xmlns="http://www.w3.org/2000/svg" xmlns:xlink="http://www.w3.org/1999/xlink" x="0px" y="0px"
	 width="1400px" height="980px" viewBox="0 0 1400 980" enable-background="new 0 0 1400 980" xml:space="preserve">
<g>
	<rect fill="#5CB1CF" width="1400" height="980"/>
	<g>
		<g>
			<g>
				<g>
					<path fill="#285C6E" d="M183.222,229.071l-44.701-55.876c-6.265,5.222-11.892,13.29-15.788,19.84
						c-8.5,14.294-12.935,31.755-5.702,46.151c15.279,30.408,64.279,79.153,64.279,79.153s48.745,49,79.153,64.279
						c14.397,7.233,31.857,2.798,46.151-5.702c6.55-3.895,14.618-9.522,19.84-15.788l-55.876-44.701
						c-8.841,3.306-16.004,2.34-21.905-0.642c-7.058-3.567-23.146-16.164-35.896-28.913c-12.749-12.749-25.347-28.838-28.913-35.896
						C180.882,245.076,179.915,237.913,183.222,229.071z"/>
					<path fill="#285C6E" d="M328.51,358.405c2.531-3.768,3.87-7.702,3.127-11.583c-0.556-2.902-2.274-5.775-5.524-8.525
						c-10.868-9.197-34.509-26.131-34.509-26.131c-0.001-0.001-4.251-4.249-15.634,1.822c-0.618,0.33-1.225,0.63-1.828,0.921
						L328.51,358.405z"/>
					<path fill="#285C6E" d="M184.741,225.509c0.29-0.603,0.591-1.21,0.921-1.828c6.071-11.383,1.823-15.633,1.822-15.634
						c0,0-16.934-23.641-26.131-34.509c-2.75-3.25-5.622-4.969-8.525-5.524c-3.881-0.743-7.814,0.596-11.583,3.127L184.741,225.509z
						"/>
				</g>
				<g>
					
						<rect x="291.818" y="176.576" transform="matrix(-0.7071 0.7071 -0.7071 -0.7071 652.4699 127.5102)" fill="#285C6E" width="16.017" height="44.62"/>
					<polygon fill="#285C6E" points="280.815,249.449 304.276,225.988 272.725,194.437 249.264,217.898 227.017,195.65 
						227.316,271.396 303.063,271.696 					"/>
				</g>
			</g>
			<g>
				<g>
					<path fill="#FFFFFF" d="M195.222,219.071l-44.701-55.876c-6.265,5.222-11.892,13.29-15.788,19.84
						c-8.5,14.294-12.935,31.755-5.702,46.151c15.279,30.408,64.279,79.153,64.279,79.153s48.745,49,79.153,64.279
						c14.397,7.233,31.857,2.798,46.151-5.702c6.55-3.895,14.618-9.522,19.84-15.788l-55.876-44.701
						c-8.841,3.306-16.004,2.34-21.905-0.642c-7.058-3.567-23.146-16.164-35.896-28.913c-12.749-12.749-25.347-28.838-28.913-35.896
						C192.882,235.076,191.915,227.913,195.222,219.071z"/>
					<path fill="#FFFFFF" d="M340.51,348.405c2.531-3.768,3.87-7.702,3.127-11.583c-0.556-2.902-2.274-5.775-5.524-8.525
						c-10.868-9.197-34.509-26.131-34.509-26.131c-0.001-0.001-4.251-4.249-15.634,1.822c-0.618,0.33-1.225,0.63-1.828,0.921
						L340.51,348.405z"/>
					<path fill="#FFFFFF" d="M196.741,215.509c0.29-0.603,0.591-1.21,0.921-1.828c6.071-11.383,1.823-15.633,1.822-15.634
						c0,0-16.934-23.641-26.131-34.509c-2.75-3.25-5.622-4.969-8.525-5.524c-3.881-0.743-7.814,0.596-11.583,3.127L196.741,215.509z
						"/>
				</g>
				<g>
					
						<rect x="303.818" y="166.576" transform="matrix(-0.7071 0.7071 -0.7071 -0.7071 665.8841 101.9538)" fill="#FFFFFF" width="16.017" height="44.62"/>
					<polygon fill="#FFFFFF" points="292.815,239.449 316.276,215.988 284.725,184.437 261.264,207.898 239.017,185.65 
						239.316,261.396 315.063,261.696 					"/>
				</g>
			</g>
		</g>
		<g>
			<g>
				<g>
					<path fill="#285C6E" d="M1073.893,229.071l-44.701-55.876c-6.265,5.222-11.892,13.29-15.788,19.84
						c-8.5,14.294-12.935,31.755-5.702,46.151c15.279,30.408,64.279,79.153,64.279,79.153s48.745,49,79.153,64.279
						c14.397,7.233,31.857,2.798,46.151-5.702c6.551-3.895,14.618-9.522,19.84-15.788l-55.876-44.701
						c-8.841,3.306-16.005,2.34-21.906-0.642c-7.058-3.567-23.146-16.164-35.896-28.913c-12.749-12.749-25.347-28.838-28.913-35.896
						C1071.553,245.076,1070.587,237.913,1073.893,229.071z"/>
					<path fill="#285C6E" d="M1219.181,358.405c2.531-3.768,3.87-7.702,3.127-11.583c-0.556-2.902-2.274-5.775-5.524-8.525
						c-10.869-9.197-34.509-26.131-34.509-26.131c-0.001-0.001-4.251-4.249-15.634,1.822c-0.618,0.33-1.225,0.63-1.828,0.921
						L1219.181,358.405z"/>
					<path fill="#285C6E" d="M1075.412,225.509c0.29-0.603,0.591-1.21,0.921-1.828c6.071-11.383,1.823-15.633,1.822-15.634
						c0,0-16.934-23.641-26.131-34.509c-2.75-3.25-5.622-4.969-8.525-5.524c-3.881-0.743-7.814,0.596-11.583,3.127L1075.412,225.509
						z"/>
				</g>
				<g>
					<polygon fill="#285C6E" points="1160.497,228.585 1222.476,228.585 1222.476,183.965 1160.497,183.965 1160.497,152.502 
						1107.148,206.275 1160.497,260.047 					"/>
				</g>
				<g>
					<polygon fill="#285C6E" points="1231.404,282.357 1169.425,282.357 1169.425,237.737 1231.404,237.737 1231.404,206.275 
						1284.753,260.047 1231.404,313.82 					"/>
				</g>
			</g>
			<g>
				<g>
					<path fill="#FFFFFF" d="M1085.893,219.071l-44.701-55.876c-6.265,5.222-11.892,13.29-15.788,19.84
						c-8.5,14.294-12.935,31.755-5.702,46.151c15.279,30.408,64.279,79.153,64.279,79.153s48.745,49,79.153,64.279
						c14.397,7.233,31.857,2.798,46.151-5.702c6.551-3.895,14.618-9.522,19.84-15.788l-55.876-44.701
						c-8.841,3.306-16.005,2.34-21.906-0.642c-7.058-3.567-23.146-16.164-35.896-28.913c-12.749-12.749-25.347-28.838-28.913-35.896
						C1083.553,235.076,1082.587,227.913,1085.893,219.071z"/>
					<path fill="#FFFFFF" d="M1231.181,348.405c2.531-3.768,3.87-7.702,3.127-11.583c-0.556-2.902-2.274-5.775-5.524-8.525
						c-10.869-9.197-34.509-26.131-34.509-26.131c-0.001-0.001-4.251-4.249-15.634,1.822c-0.618,0.33-1.225,0.63-1.828,0.921
						L1231.181,348.405z"/>
					<path fill="#FFFFFF" d="M1087.412,215.509c0.29-0.603,0.591-1.21,0.921-1.828c6.071-11.383,1.823-15.633,1.822-15.634
						c0,0-16.934-23.641-26.131-34.509c-2.75-3.25-5.622-4.969-8.525-5.524c-3.881-0.743-7.814,0.596-11.583,3.127L1087.412,215.509
						z"/>
				</g>
				<g>
					<polygon fill="#FFFFFF" points="1172.497,218.585 1234.476,218.585 1234.476,173.965 1172.497,173.965 1172.497,142.502 
						1119.148,196.275 1172.497,250.047 					"/>
				</g>
				<g>
					<polygon fill="#FFFFFF" points="1243.404,272.357 1181.425,272.357 1181.425,227.737 1243.404,227.737 1243.404,196.275 
						1296.753,250.047 1243.404,303.82 					"/>
				</g>
			</g>
		</g>
		<g>
			<g>
				<g>
					<path fill="#285C6E" d="M479.319,229.071l-44.701-55.876c-6.265,5.222-11.892,13.29-15.788,19.84
						c-8.5,14.294-12.935,31.755-5.702,46.151c15.279,30.408,64.279,79.153,64.279,79.153s48.745,49,79.153,64.279
						c14.397,7.233,31.857,2.798,46.151-5.702c6.55-3.895,14.618-9.522,19.84-15.788l-55.876-44.701
						c-8.841,3.306-16.005,2.34-21.905-0.642c-7.058-3.567-23.146-16.164-35.896-28.913c-12.749-12.749-25.347-28.838-28.913-35.896
						C476.98,245.076,476.013,237.913,479.319,229.071z"/>
					<path fill="#285C6E" d="M624.608,358.405c2.531-3.768,3.87-7.702,3.127-11.583c-0.556-2.902-2.274-5.775-5.524-8.525
						c-10.868-9.197-34.509-26.131-34.509-26.131c-0.001-0.001-4.251-4.249-15.634,1.822c-0.618,0.33-1.225,0.63-1.828,0.921
						L624.608,358.405z"/>
					<path fill="#285C6E" d="M480.838,225.509c0.29-0.603,0.591-1.21,0.921-1.828c6.071-11.383,1.823-15.633,1.822-15.634
						c0,0-16.934-23.641-26.131-34.509c-2.75-3.25-5.622-4.969-8.525-5.524c-3.881-0.743-7.814,0.596-11.583,3.127L480.838,225.509z
						"/>
				</g>
				<g>
					<g>
						<path fill="#285C6E" d="M633.32,282.25c-4.107,0-7.437-3.33-7.437-7.437c0-55.99-45.551-101.541-101.541-101.541
							c-4.107,0-7.437-3.33-7.437-7.437c0-4.107,3.33-7.437,7.437-7.437c64.191,0,116.414,52.223,116.414,116.414
							C640.757,278.921,637.427,282.25,633.32,282.25z"/>
					</g>
					<g>
						<path fill="#285C6E" d="M606.875,282.25c-4.107,0-7.437-3.33-7.437-7.437c0-41.408-33.688-75.097-75.096-75.097
							c-4.107,0-7.437-3.33-7.437-7.437s3.33-7.437,7.437-7.437c49.61,0,89.969,40.36,89.969,89.97
							C614.312,278.921,610.982,282.25,606.875,282.25z"/>
					</g>
					<g>
						<path fill="#285C6E" d="M580.431,282.25c-4.107,0-7.437-3.33-7.437-7.437c0-26.827-21.825-48.652-48.652-48.652
							c-4.107,0-7.437-3.33-7.437-7.437c0-4.107,3.33-7.437,7.437-7.437c35.028,0,63.525,28.497,63.525,63.525
							C587.868,278.921,584.538,282.25,580.431,282.25z"/>
					</g>
				</g>
			</g>
			<g>
				<g>
					<path fill="#FFFFFF" d="M491.319,219.071l-44.701-55.876c-6.265,5.222-11.892,13.29-15.788,19.84
						c-8.5,14.294-12.935,31.755-5.702,46.151c15.279,30.408,64.279,79.153,64.279,79.153s48.745,49,79.153,64.279
						c14.397,7.233,31.857,2.798,46.151-5.702c6.55-3.895,14.618-9.522,19.84-15.788l-55.876-44.701
						c-8.841,3.306-16.005,2.34-21.905-0.642c-7.058-3.567-23.146-16.164-35.896-28.913c-12.749-12.749-25.347-28.838-28.913-35.896
						C488.98,235.076,488.013,227.913,491.319,219.071z"/>
					<path fill="#FFFFFF" d="M636.608,348.405c2.531-3.768,3.87-7.702,3.127-11.583c-0.556-2.902-2.274-5.775-5.524-8.525
						c-10.868-9.197-34.509-26.131-34.509-26.131c-0.001-0.001-4.251-4.249-15.634,1.822c-0.618,0.33-1.225,0.63-1.828,0.921
						L636.608,348.405z"/>
					<path fill="#FFFFFF" d="M492.838,215.509c0.29-0.603,0.591-1.21,0.921-1.828c6.071-11.383,1.823-15.633,1.822-15.634
						c0,0-16.934-23.641-26.131-34.509c-2.75-3.25-5.622-4.969-8.525-5.524c-3.881-0.743-7.814,0.596-11.583,3.127L492.838,215.509z
						"/>
				</g>
				<g>
					<g>
						<path fill="#FFFFFF" d="M645.32,272.25c-4.107,0-7.437-3.33-7.437-7.437c0-55.99-45.551-101.541-101.541-101.541
							c-4.107,0-7.437-3.33-7.437-7.437c0-4.107,3.33-7.437,7.437-7.437c64.191,0,116.414,52.223,116.414,116.414
							C652.757,268.921,649.427,272.25,645.32,272.25z"/>
					</g>
					<g>
						<path fill="#FFFFFF" d="M618.875,272.25c-4.107,0-7.437-3.33-7.437-7.437c0-41.408-33.688-75.097-75.096-75.097
							c-4.107,0-7.437-3.33-7.437-7.437s3.33-7.437,7.437-7.437c49.61,0,89.969,40.36,89.969,89.97
							C626.312,268.921,622.982,272.25,618.875,272.25z"/>
					</g>
					<g>
						<path fill="#FFFFFF" d="M592.431,272.25c-4.107,0-7.437-3.33-7.437-7.437c0-26.827-21.825-48.652-48.652-48.652
							c-4.107,0-7.437-3.33-7.437-7.437c0-4.107,3.33-7.437,7.437-7.437c35.028,0,63.525,28.497,63.525,63.525
							C599.868,268.921,596.538,272.25,592.431,272.25z"/>
					</g>
				</g>
			</g>
		</g>
		<g>
			<g>
				<g>
					<path fill="#285C6E" d="M772.68,229.071l-44.701-55.876c-6.265,5.222-11.892,13.29-15.788,19.84
						c-8.5,14.294-12.935,31.755-5.702,46.151c15.279,30.408,64.279,79.153,64.279,79.153s48.745,49,79.153,64.279
						c14.397,7.233,31.857,2.798,46.151-5.702c6.55-3.895,14.618-9.522,19.84-15.788l-55.876-44.701
						c-8.841,3.306-16.005,2.34-21.905-0.642c-7.058-3.567-23.146-16.164-35.896-28.913c-12.749-12.749-25.347-28.838-28.913-35.896
						C770.34,245.076,769.373,237.913,772.68,229.071z"/>
					<path fill="#285C6E" d="M917.968,358.405c2.531-3.768,3.87-7.702,3.127-11.583c-0.556-2.902-2.274-5.775-5.524-8.525
						c-10.868-9.197-34.509-26.131-34.509-26.131c-0.001-0.001-4.251-4.249-15.634,1.822c-0.618,0.33-1.225,0.63-1.828,0.921
						L917.968,358.405z"/>
					<path fill="#285C6E" d="M774.199,225.509c0.29-0.603,0.591-1.21,0.921-1.828c6.071-11.383,1.823-15.633,1.822-15.634
						c0,0-16.935-23.641-26.131-34.509c-2.75-3.25-5.622-4.969-8.525-5.524c-3.881-0.743-7.814,0.596-11.583,3.127L774.199,225.509z
						"/>
				</g>
				<path fill="#285C6E" d="M942.057,158.863h-99.215c-6.207,0-11.238,5.031-11.238,11.238v57.57
					c0,6.207,5.032,11.238,11.238,11.238h15.754l-26.992,29.998l67.196-29.998h43.257c6.207,0,11.238-5.032,11.238-11.238v-57.57
					C953.295,163.894,948.263,158.863,942.057,158.863z M867.031,190.774c4.48,0,8.112,3.632,8.112,8.112
					c0,4.48-3.632,8.112-8.112,8.112s-8.112-3.632-8.112-8.112C858.919,194.406,862.551,190.774,867.031,190.774z M892.584,206.998
					c-4.48,0-8.112-3.632-8.112-8.112c0-4.48,3.632-8.112,8.112-8.112c4.48,0,8.112,3.632,8.112,8.112
					C900.696,203.366,897.064,206.998,892.584,206.998z M918.136,206.998c-4.48,0-8.112-3.632-8.112-8.112
					c0-4.48,3.632-8.112,8.112-8.112c4.48,0,8.112,3.632,8.112,8.112C926.248,203.366,922.616,206.998,918.136,206.998z"/>
			</g>
			<g>
				<g>
					<path fill="#FFFFFF" d="M784.68,219.071l-44.701-55.876c-6.265,5.222-11.892,13.29-15.788,19.84
						c-8.5,14.294-12.935,31.755-5.702,46.151c15.279,30.408,64.279,79.153,64.279,79.153s48.745,49,79.153,64.279
						c14.397,7.233,31.857,2.798,46.151-5.702c6.55-3.895,14.618-9.522,19.84-15.788l-55.876-44.701
						c-8.841,3.306-16.005,2.34-21.905-0.642c-7.058-3.567-23.146-16.164-35.896-28.913c-12.749-12.749-25.347-28.838-28.913-35.896
						C782.34,235.076,781.373,227.913,784.68,219.071z"/>
					<path fill="#FFFFFF" d="M929.968,348.405c2.531-3.768,3.87-7.702,3.127-11.583c-0.556-2.902-2.274-5.775-5.524-8.525
						c-10.868-9.197-34.509-26.131-34.509-26.131c-0.001-0.001-4.251-4.249-15.634,1.822c-0.618,0.33-1.225,0.63-1.828,0.921
						L929.968,348.405z"/>
					<path fill="#FFFFFF" d="M786.199,215.509c0.29-0.603,0.591-1.21,0.921-1.828c6.071-11.383,1.823-15.633,1.822-15.634
						c0,0-16.935-23.641-26.131-34.509c-2.75-3.25-5.622-4.969-8.525-5.524c-3.881-0.743-7.814,0.596-11.583,3.127L786.199,215.509z
						"/>
				</g>
				<path fill="#FFFFFF" d="M954.057,148.863h-99.215c-6.207,0-11.238,5.031-11.238,11.238v57.57
					c0,6.207,5.032,11.238,11.238,11.238h15.754l-26.992,29.998l67.196-29.998h43.257c6.207,0,11.238-5.032,11.238-11.238v-57.57
					C965.295,153.894,960.263,148.863,954.057,148.863z M879.031,180.774c4.48,0,8.112,3.632,8.112,8.112
					c0,4.48-3.632,8.112-8.112,8.112s-8.112-3.632-8.112-8.112C870.919,184.406,874.551,180.774,879.031,180.774z M904.584,196.998
					c-4.48,0-8.112-3.632-8.112-8.112c0-4.48,3.632-8.112,8.112-8.112c4.48,0,8.112,3.632,8.112,8.112
					C912.696,193.366,909.064,196.998,904.584,196.998z M930.136,196.998c-4.48,0-8.112-3.632-8.112-8.112
					c0-4.48,3.632-8.112,8.112-8.112c4.48,0,8.112,3.632,8.112,8.112C938.248,193.366,934.616,196.998,930.136,196.998z"/>
			</g>
		</g>
		<g>
			<g>
				<polygon fill="#285C6E" points="1168.941,659.285 1222.343,659.285 1222.343,620.84 1168.941,620.84 1168.941,593.732 
					1122.975,640.063 1168.941,686.393 				"/>
				<path fill="#285C6E" d="M1190.826,711.336v61.102c0,8.153-6.633,14.786-14.786,14.786h-133.587
					c-8.154,0-14.786-6.633-14.786-14.786V547.686c0-8.153,6.633-14.786,14.786-14.786h133.587c8.154,0,14.786,6.633,14.786,14.786
					v67.434h14.786v-67.434c0-16.333-13.24-29.573-29.573-29.573h-133.586c-16.333,0-29.573,13.24-29.573,29.573v260.24
					c0,16.333,13.24,29.573,29.573,29.573h133.586c16.332,0,29.573-13.24,29.573-29.573v-96.589H1190.826z M1125.468,823.123
					h-32.443c-5.188,0-9.394-4.206-9.394-9.395c0-5.188,4.206-9.395,9.394-9.395h32.443c5.188,0,9.395,4.206,9.395,9.395
					C1134.862,818.917,1130.656,823.123,1125.468,823.123z"/>
				<polygon fill="#285C6E" points="1229.977,667.171 1176.575,667.171 1176.575,705.615 1229.977,705.615 1229.977,732.724 
					1275.943,686.393 1229.977,640.063 				"/>
			</g>
			<g>
				<polygon fill="#FFFFFF" points="1180.941,649.285 1234.343,649.285 1234.343,610.84 1180.941,610.84 1180.941,583.732 
					1134.975,630.063 1180.941,676.393 				"/>
				<path fill="#FFFFFF" d="M1202.826,701.336v61.102c0,8.153-6.633,14.786-14.786,14.786h-133.587
					c-8.154,0-14.786-6.633-14.786-14.786V537.686c0-8.153,6.633-14.786,14.786-14.786h133.587c8.154,0,14.786,6.633,14.786,14.786
					v67.434h14.786v-67.434c0-16.333-13.24-29.573-29.573-29.573h-133.586c-16.333,0-29.573,13.24-29.573,29.573v260.24
					c0,16.333,13.24,29.573,29.573,29.573h133.586c16.332,0,29.573-13.24,29.573-29.573v-96.589H1202.826z M1137.468,813.123
					h-32.443c-5.188,0-9.394-4.206-9.394-9.395c0-5.188,4.206-9.395,9.394-9.395h32.443c5.188,0,9.395,4.206,9.395,9.395
					C1146.862,808.917,1142.656,813.123,1137.468,813.123z"/>
				<polygon fill="#FFFFFF" points="1241.977,657.171 1188.575,657.171 1188.575,695.615 1241.977,695.615 1241.977,722.724 
					1287.943,676.393 1241.977,630.063 				"/>
			</g>
		</g>
		<g>
			<g>
				<g>
					<path fill="#285C6E" d="M281.192,685.863v86.575c0,8.153-6.633,14.786-14.786,14.786H132.819
						c-8.154,0-14.786-6.633-14.786-14.786V547.686c0-8.153,6.633-14.786,14.786-14.786h133.586c8.154,0,14.786,6.633,14.786,14.786
						v85.933h14.786v-85.933c0-16.333-13.24-29.573-29.573-29.573H132.819c-16.333,0-29.573,13.24-29.573,29.573v260.24
						c0,16.333,13.24,29.573,29.573,29.573h133.586c16.332,0,29.573-13.24,29.573-29.573V685.863H281.192z M215.834,823.123h-32.443
						c-5.188,0-9.395-4.206-9.395-9.395s4.206-9.395,9.395-9.395h32.443c5.188,0,9.395,4.206,9.395,9.395
						S221.023,823.123,215.834,823.123z"/>
					<polygon fill="#285C6E" points="245.578,678.963 298.98,678.963 298.98,640.519 245.578,640.519 245.578,613.41 
						199.613,659.741 245.578,706.072 					"/>
				</g>
				<rect x="303.869" y="640.519" fill="#285C6E" width="9.778" height="38.551"/>
				<rect x="318.042" y="640.519" fill="#285C6E" width="9.778" height="38.551"/>
				<rect x="332.215" y="640.519" fill="#285C6E" width="9.778" height="38.551"/>
			</g>
			<g>
				<g>
					<path fill="#FFFFFF" d="M293.192,675.863v86.575c0,8.153-6.633,14.786-14.786,14.786H144.819
						c-8.154,0-14.786-6.633-14.786-14.786V537.686c0-8.153,6.633-14.786,14.786-14.786h133.586c8.154,0,14.786,6.633,14.786,14.786
						v85.933h14.786v-85.933c0-16.333-13.24-29.573-29.573-29.573H144.819c-16.333,0-29.573,13.24-29.573,29.573v260.24
						c0,16.333,13.24,29.573,29.573,29.573h133.586c16.332,0,29.573-13.24,29.573-29.573V675.863H293.192z M227.834,813.123h-32.443
						c-5.188,0-9.395-4.206-9.395-9.395s4.206-9.395,9.395-9.395h32.443c5.188,0,9.395,4.206,9.395,9.395
						S233.023,813.123,227.834,813.123z"/>
					<polygon fill="#FFFFFF" points="257.578,668.963 310.98,668.963 310.98,630.519 257.578,630.519 257.578,603.41 
						211.613,649.741 257.578,696.072 					"/>
				</g>
				<rect x="315.869" y="630.519" fill="#FFFFFF" width="9.778" height="38.551"/>
				<rect x="330.042" y="630.519" fill="#FFFFFF" width="9.778" height="38.551"/>
				<rect x="344.215" y="630.519" fill="#FFFFFF" width="9.778" height="38.551"/>
			</g>
		</g>
		<g>
			<g>
				<g>
					<g>
						<path fill="#285C6E" d="M597.967,747.967c-2.904-2.904-2.904-7.613,0-10.517c39.591-39.591,39.591-104.009,0-143.601
							c-2.904-2.904-2.904-7.613,0-10.517c2.904-2.904,7.613-2.904,10.517,0c45.39,45.39,45.39,119.245,0,164.635
							C605.58,750.871,600.871,750.871,597.967,747.967z"/>
					</g>
					<g>
						<path fill="#285C6E" d="M579.267,729.268c-2.904-2.904-2.904-7.613,0-10.517c29.28-29.28,29.28-76.923,0-106.202
							c-2.904-2.904-2.904-7.613,0-10.517c2.904-2.904,7.613-2.904,10.517,0c35.079,35.079,35.079,92.157,0,127.236
							C586.88,732.172,582.171,732.172,579.267,729.268z"/>
					</g>
					<g>
						<path fill="#285C6E" d="M560.569,710.569c-2.904-2.904-2.904-7.613,0-10.517c18.97-18.97,18.97-49.835,0-68.805
							c-2.904-2.904-2.904-7.613,0-10.517c2.904-2.904,7.613-2.904,10.517,0c24.768,24.769,24.768,65.07,0,89.839
							C568.181,713.473,563.473,713.473,560.569,710.569z"/>
					</g>
				</g>
				<path fill="#285C6E" d="M585.672,749.407v23.031c0,8.153-6.633,14.786-14.786,14.786H437.299
					c-8.154,0-14.786-6.633-14.786-14.786V547.686c0-8.153,6.633-14.786,14.786-14.786h133.586c8.154,0,14.786,6.633,14.786,14.786
					v32.423l14.786-14.786v-17.637c0-16.333-13.24-29.573-29.573-29.573H437.299c-16.333,0-29.573,13.24-29.573,29.573v260.24
					c0,16.333,13.24,29.573,29.573,29.573h133.586c16.332,0,29.573-13.24,29.573-29.573v-47.234L585.672,749.407z M520.314,823.123
					h-32.443c-5.189,0-9.395-4.206-9.395-9.395c0-5.188,4.206-9.395,9.395-9.395h32.443c5.188,0,9.394,4.206,9.394,9.395
					C529.709,818.917,525.503,823.123,520.314,823.123z"/>
			</g>
			<g>
				<g>
					<g>
						<path fill="#FFFFFF" d="M609.967,737.967c-2.904-2.904-2.904-7.613,0-10.517c39.591-39.591,39.591-104.009,0-143.601
							c-2.904-2.904-2.904-7.613,0-10.517c2.904-2.904,7.613-2.904,10.517,0c45.39,45.39,45.39,119.245,0,164.635
							C617.58,740.871,612.871,740.871,609.967,737.967z"/>
					</g>
					<g>
						<path fill="#FFFFFF" d="M591.267,719.268c-2.904-2.904-2.904-7.613,0-10.517c29.28-29.28,29.28-76.923,0-106.202
							c-2.904-2.904-2.904-7.613,0-10.517c2.904-2.904,7.613-2.904,10.517,0c35.079,35.079,35.079,92.157,0,127.236
							C598.88,722.172,594.171,722.172,591.267,719.268z"/>
					</g>
					<g>
						<path fill="#FFFFFF" d="M572.569,700.569c-2.904-2.904-2.904-7.613,0-10.517c18.97-18.97,18.97-49.835,0-68.805
							c-2.904-2.904-2.904-7.613,0-10.517c2.904-2.904,7.613-2.904,10.517,0c24.768,24.769,24.768,65.07,0,89.839
							C580.181,703.473,575.473,703.473,572.569,700.569z"/>
					</g>
				</g>
				<path fill="#FFFFFF" d="M597.672,739.407v23.031c0,8.153-6.633,14.786-14.786,14.786H449.299
					c-8.154,0-14.786-6.633-14.786-14.786V537.686c0-8.153,6.633-14.786,14.786-14.786h133.586c8.154,0,14.786,6.633,14.786,14.786
					v32.423l14.786-14.786v-17.637c0-16.333-13.24-29.573-29.573-29.573H449.299c-16.333,0-29.573,13.24-29.573,29.573v260.24
					c0,16.333,13.24,29.573,29.573,29.573h133.586c16.332,0,29.573-13.24,29.573-29.573v-47.234L597.672,739.407z M532.314,813.123
					h-32.443c-5.189,0-9.395-4.206-9.395-9.395c0-5.188,4.206-9.395,9.395-9.395h32.443c5.188,0,9.394,4.206,9.394,9.395
					C541.709,808.917,537.503,813.123,532.314,813.123z"/>
			</g>
		</g>
		<g>
			<g>
				<g>
					<g>
						<path fill="#285C6E" d="M890.697,684.719v87.719c0,8.153-6.633,14.786-14.786,14.786H742.324
							c-8.154,0-14.786-6.633-14.786-14.786V547.686c0-8.153,6.633-14.786,14.786-14.786h133.586
							c8.154,0,14.786,6.633,14.786,14.786v36.81h14.786v-36.81c0-16.333-13.24-29.573-29.573-29.573H742.324
							c-16.333,0-29.573,13.24-29.573,29.573v260.24c0,16.333,13.24,29.573,29.573,29.573H875.91
							c16.333,0,29.573-13.24,29.573-29.573V684.719H890.697z M825.339,823.123h-32.443c-5.188,0-9.395-4.206-9.395-9.395
							s4.206-9.395,9.395-9.395h32.443c5.188,0,9.395,4.206,9.395,9.395S830.527,823.123,825.339,823.123z"/>
					</g>
				</g>
				<path fill="#285C6E" d="M932.162,593.732h-99.215c-6.207,0-11.238,5.031-11.238,11.238v57.57
					c0,6.207,5.032,11.238,11.238,11.238h15.754l-26.992,29.998l67.196-29.998h43.257c6.207,0,11.238-5.031,11.238-11.238v-57.57
					C943.4,598.764,938.369,593.732,932.162,593.732z M857.136,625.643c4.48,0,8.112,3.632,8.112,8.112
					c0,4.48-3.632,8.112-8.112,8.112c-4.48,0-8.112-3.632-8.112-8.112C849.025,629.275,852.656,625.643,857.136,625.643z
					 M882.689,641.867c-4.48,0-8.112-3.632-8.112-8.112c0-4.48,3.632-8.112,8.112-8.112c4.48,0,8.112,3.632,8.112,8.112
					C890.801,638.235,887.169,641.867,882.689,641.867z M908.241,641.867c-4.48,0-8.112-3.632-8.112-8.112
					c0-4.48,3.632-8.112,8.112-8.112s8.112,3.632,8.112,8.112C916.353,638.235,912.721,641.867,908.241,641.867z"/>
			</g>
			<g>
				<g>
					<g>
						<path fill="#FFFFFF" d="M902.697,674.719v87.719c0,8.153-6.633,14.786-14.786,14.786H754.324
							c-8.154,0-14.786-6.633-14.786-14.786V537.686c0-8.153,6.633-14.786,14.786-14.786h133.586
							c8.154,0,14.786,6.633,14.786,14.786v36.81h14.786v-36.81c0-16.333-13.24-29.573-29.573-29.573H754.324
							c-16.333,0-29.573,13.24-29.573,29.573v260.24c0,16.333,13.24,29.573,29.573,29.573H887.91
							c16.333,0,29.573-13.24,29.573-29.573V674.719H902.697z M837.339,813.123h-32.443c-5.188,0-9.395-4.206-9.395-9.395
							s4.206-9.395,9.395-9.395h32.443c5.188,0,9.395,4.206,9.395,9.395S842.527,813.123,837.339,813.123z"/>
					</g>
				</g>
				<path fill="#FFFFFF" d="M944.162,583.732h-99.215c-6.207,0-11.238,5.031-11.238,11.238v57.57
					c0,6.207,5.032,11.238,11.238,11.238h15.754l-26.992,29.998l67.196-29.998h43.257c6.207,0,11.238-5.031,11.238-11.238v-57.57
					C955.4,588.764,950.369,583.732,944.162,583.732z M869.136,615.643c4.48,0,8.112,3.632,8.112,8.112
					c0,4.48-3.632,8.112-8.112,8.112c-4.48,0-8.112-3.632-8.112-8.112C861.025,619.275,864.656,615.643,869.136,615.643z
					 M894.689,631.867c-4.48,0-8.112-3.632-8.112-8.112c0-4.48,3.632-8.112,8.112-8.112c4.48,0,8.112,3.632,8.112,8.112
					C902.801,628.235,899.169,631.867,894.689,631.867z M920.241,631.867c-4.48,0-8.112-3.632-8.112-8.112
					c0-4.48,3.632-8.112,8.112-8.112s8.112,3.632,8.112,8.112C928.353,628.235,924.721,631.867,920.241,631.867z"/>
			</g>
		</g>
	</g>
</g>
</svg>
